<?xml version="1.0" encoding="utf-8"?>
<!-- Generator: Adobe Illustrator 21.0.0, SVG Export Plug-In . SVG Version: 6.00 Build 0)  -->
<svg version="1.1" id="图层_1" xmlns="http://www.w3.org/2000/svg" xmlns:xlink="http://www.w3.org/1999/xlink" x="0px" y="0px"
	 viewBox="0 0 2048 940" style="enable-background:new 0 0 2048 940;" xml:space="preserve">
<style type="text/css">
	.st0{clip-path:url(#SVGID_2_);}
	.st1{fill:none;stroke:#252589;stroke-width:4.81;stroke-linecap:round;stroke-linejoin:round;}
	.st2{fill:none;stroke:#252589;stroke-width:12.02;stroke-linecap:round;stroke-linejoin:round;}
	.st3{fill:none;stroke:#252589;stroke-width:2.4;}
	.st4{fill:none;stroke:#252589;stroke-width:2.4;stroke-miterlimit:10;}
</style>
<g>
	<defs>
		<rect id="SVGID_1_" y="-32.9" width="1901.6" height="1057.7"/>
	</defs>
	<clipPath id="SVGID_2_">
		<use xlink:href="#SVGID_1_"  style="overflow:visible;"/>
	</clipPath>
	<g class="st0">
		<g id="_编组_">
			<path id="_路径_" class="st1" d="M347.4,870.1c0,10,4.2,17.6,9.2,17.6c5,0,5-6.2,5-17.1L347.4,870.1z"/>
			<path id="_路径_2" class="st1" d="M609.8,866.8c6.7,26.1,11.8,33.2,16.8,32.6c5-0.6,4.2-6-2.6-32.9L609.8,866.8z"/>
			<polygon id="_路径_3" class="st1" points="179.5,931 168.4,947.2 185.6,981.2 223.3,981.2 241,949.7 217.1,931.3 			"/>
			<path id="_路径_4" class="st2" d="M1823.8,582.5c0,31-23.5,33.8-48.6,41.9c-405.8,130.8-544.5,172.2-754.5,209.1
				c-127.4,22.3-182.8,29-378.9,32.4c-129.1,2.2-1278.8,21.2-1392.2,21.2c-105.1,0-201.4-2.3-324.2-25.7
				c-99.5-19-219.1-79.4-219.1-105.1s48-40.1,77.1-54.6c6.7-3.3,31.3-32.6,68.2-52.7c36.9-20.1,135.3-69.9,333.1-74.9
				c543.2-13.8,1520.8-16.5,1912.6-16.5c131.3,0,230.3-79.7,315.2-166.9s308.5-319.7,308.5-319.7h163.2L1693,557.4
				c0,0,112.3,8.8,119,9.9S1823.8,573.6,1823.8,582.5z"/>
			<path id="_路径_5" class="st1" d="M1164.3,705.8c1.7-23.5,1.9-68.8-3.3-88.3c-1.7-6.1-3.9-10-10-10h-39.1
				c-6.7,0-9.3,2.2-7.4,10c4.6,19.7,2.8,67.6,3.3,88.3c0.1,5.6,5.2,8.9,11.3,8.9h35.2C1159.3,714.7,1163.7,714.2,1164.3,705.8z"/>
			<circle id="_路径_6" class="st1" cx="1148.8" cy="657.4" r="5.3"/>
			<rect id="_路径_7" x="1120.3" y="651.8" class="st1" width="7.6" height="22.9"/>
			<circle id="_路径_8" class="st3" cx="156" cy="972.2" r="34.4"/>
			<circle id="_路径_9" class="st4" cx="156" cy="972.2" r="18.3"/>
			<circle id="_路径_10" class="st3" cx="156" cy="972.2" r="9.2"/>
			<circle id="_路径_11" class="st3" cx="249.4" cy="972.2" r="34.4"/>
			<circle id="_路径_12" class="st4" cx="249.3" cy="972.2" r="18.3"/>
			<circle id="_路径_13" class="st3" cx="249.3" cy="972.2" r="9.2"/>
			<path id="_路径_14" class="st1" d="M14.8,694.7c2-0.1,3.5-1.8,3.3-3.8c0,0,0,0,0,0v-13.1c0.1-2-1.4-3.6-3.3-3.8h-5
				c-2,0.1-3.5,1.8-3.3,3.8c0,0,0,0,0,0v13.1c-0.1,2,1.4,3.6,3.3,3.8H14.8z"/>
			<path id="_路径_15" class="st1" d="M43.8,694.5c2-0.1,3.5-1.8,3.3-3.8c0,0,0,0,0,0v-13.1c0.1-2-1.4-3.6-3.3-3.8h-5
				c-2,0.1-3.5,1.8-3.3,3.8c0,0,0,0,0,0v13.1c-0.1,2,1.4,3.6,3.3,3.8H43.8z"/>
			<path id="_路径_16" class="st1" d="M72.8,694.3c2-0.1,3.5-1.8,3.3-3.8c0,0,0,0,0,0v-13.1c0.1-2-1.4-3.6-3.3-3.8h-5
				c-2,0.1-3.5,1.8-3.3,3.8v13.1c-0.1,2,1.4,3.7,3.3,3.8L72.8,694.3z"/>
			<path id="_路径_17" class="st1" d="M101.8,694.1c2-0.1,3.5-1.8,3.3-3.8c0,0,0,0,0,0v-13.1c0.1-2-1.4-3.6-3.3-3.8h-5
				c-2,0.1-3.5,1.8-3.3,3.8c0,0,0,0,0,0v13.1c-0.1,2,1.4,3.6,3.3,3.8H101.8z"/>
			<path id="_路径_18" class="st1" d="M130.9,694c2-0.1,3.5-1.8,3.3-3.8c0,0,0,0,0,0v-13.1c0.1-2-1.4-3.6-3.3-3.8h-5
				c-2,0.1-3.5,1.8-3.3,3.8c0,0,0,0,0,0v13.1c-0.1,2,1.4,3.6,3.3,3.8H130.9z"/>
			<path id="_路径_19" class="st1" d="M159.9,693.8c2-0.1,3.5-1.8,3.3-3.8c0,0,0,0,0,0v-13.1c0.1-2-1.4-3.6-3.3-3.8h-5
				c-2,0.1-3.5,1.8-3.3,3.8c0,0,0,0,0,0V690c-0.1,2,1.4,3.6,3.3,3.8H159.9z"/>
			<path id="_路径_20" class="st1" d="M188.9,693.6c2-0.1,3.5-1.8,3.3-3.8c0,0,0,0,0,0v-13.1c0.1-2-1.4-3.6-3.3-3.8h-5
				c-2,0.1-3.5,1.8-3.3,3.8c0,0,0,0,0,0v13.1c-0.1,2,1.4,3.6,3.3,3.8H188.9z"/>
			<path id="_路径_21" class="st1" d="M218,693.4c2-0.1,3.5-1.8,3.3-3.8c0,0,0,0,0,0v-13.1c0.1-2-1.4-3.6-3.3-3.8h-5
				c-2,0.1-3.5,1.8-3.3,3.8c0,0,0,0,0,0v13.1c-0.1,2,1.4,3.6,3.3,3.8H218z"/>
			<path id="_路径_22" class="st1" d="M653.3,681.6c2-0.2,3.4-1.9,3.2-3.9l-0.2-13.1c0.1-2-1.4-3.6-3.3-3.7h-5
				c-2,0.2-3.4,1.9-3.2,3.9l0.2,13.1c-0.1,2,1.4,3.6,3.3,3.7H653.3z"/>
			<path id="_路径_23" class="st1" d="M682.4,681.1c2-0.2,3.4-1.9,3.2-3.9l-0.2-13.1c0.1-2-1.4-3.6-3.3-3.7h-5
				c-2,0.2-3.4,1.9-3.2,3.9l0.2,13.1c-0.1,2,1.4,3.6,3.3,3.8L682.4,681.1z"/>
			<path id="_路径_24" class="st1" d="M711.4,680.7c2-0.2,3.4-1.9,3.2-3.9l-0.2-13.1c0.1-2-1.4-3.6-3.3-3.8h-5
				c-2,0.2-3.4,1.9-3.2,3.9l0.2,13.1c-0.1,2,1.4,3.6,3.3,3.8H711.4z"/>
			<path id="_路径_25" class="st1" d="M740.4,680.2c2-0.2,3.4-1.9,3.2-3.9l-0.2-13.1c0.1-2-1.4-3.6-3.3-3.8h-5
				c-2,0.2-3.4,1.9-3.2,3.9l0.2,13.1c-0.1,2,1.4,3.6,3.3,3.7L740.4,680.2z"/>
			<path id="_路径_26" class="st1" d="M769.4,679.7c2-0.2,3.4-1.9,3.2-3.9l-0.2-13.1c0.1-2-1.4-3.6-3.3-3.7h-5
				c-2,0.2-3.4,1.9-3.2,3.9l0.2,13.1c-0.1,2,1.4,3.6,3.3,3.7H769.4z"/>
			<path id="_路径_27" class="st1" d="M798.5,679.3c2-0.2,3.4-1.9,3.2-3.9l-0.2-13.1c0.1-2-1.4-3.6-3.3-3.7h-5
				c-2,0.2-3.4,1.9-3.2,3.9l0.2,13.1c-0.1,2,1.4,3.6,3.3,3.7H798.5z"/>
			<path id="_路径_28" class="st1" d="M827.5,678.8c2-0.2,3.4-1.9,3.2-3.9l-0.2-13.1c0.1-2-1.4-3.6-3.3-3.7h-5
				c-2,0.2-3.4,1.9-3.2,3.9l0.2,13.1c-0.1,2,1.4,3.6,3.3,3.7H827.5z"/>
			<path id="_路径_29" class="st1" d="M856.5,678.4c2-0.2,3.4-1.9,3.2-3.9l-0.2-13.1c0.1-2-1.4-3.6-3.3-3.7h-5
				c-2,0.2-3.4,1.9-3.2,3.9l0.2,13.1c-0.1,2,1.4,3.6,3.3,3.7H856.5z"/>
			<path id="_路径_30" class="st1" d="M885.6,677.9c1.9-0.2,3.4-1.9,3.2-3.8l-0.2-13.1c0.1-2-1.4-3.6-3.3-3.7h-5
				c-2,0.2-3.4,1.9-3.2,3.9l0.2,13.1c-0.1,2,1.4,3.6,3.3,3.8L885.6,677.9z"/>
			<path id="_路径_31" class="st1" d="M914.5,677.4c2-0.2,3.4-1.9,3.2-3.9l-0.2-13.1c0.1-2-1.4-3.6-3.3-3.8h-5
				c-2,0.2-3.4,1.9-3.2,3.9l0.2,13.1c-0.1,2,1.4,3.6,3.3,3.8H914.5z"/>
			<path id="_路径_32" class="st1" d="M943.6,677c2-0.2,3.4-1.9,3.2-3.9l-0.2-13.1c0.1-2-1.4-3.6-3.3-3.8h-5
				c-2,0.2-3.4,1.9-3.2,3.9l0.2,13.1c-0.1,2,1.4,3.6,3.3,3.7L943.6,677z"/>
			<path id="_路径_33" class="st1" d="M972.6,676.5c2-0.2,3.4-1.9,3.2-3.9l-0.2-13.1c0.1-2-1.4-3.6-3.3-3.7h-5
				c-2,0.2-3.4,1.9-3.2,3.9l0.2,13.1c-0.1,2,1.4,3.6,3.3,3.7H972.6z"/>
			<path id="_路径_34" class="st1" d="M1001.7,676.1c2-0.2,3.4-1.9,3.2-3.9l-0.2-13.1c0.1-2-1.4-3.6-3.3-3.7h-5
				c-2,0.2-3.4,1.9-3.2,3.9l0.2,13.1c-0.1,2,1.4,3.6,3.3,3.7L1001.7,676.1z"/>
			<path id="_路径_35" class="st1" d="M1030.7,675.6c2-0.2,3.4-1.9,3.2-3.9l-0.2-13.1c0.1-2-1.4-3.6-3.3-3.7h-5
				c-2,0.2-3.4,1.9-3.2,3.9l0.2,13.1c-0.1,2,1.4,3.6,3.3,3.7H1030.7z"/>
			<path id="_路径_36" class="st1" d="M1059.7,675.1c2-0.2,3.4-1.9,3.2-3.9l-0.2-13.1c0.1-2-1.4-3.6-3.3-3.7h-5
				c-2,0.2-3.4,1.9-3.2,3.9l0.2,13.1c-0.1,2,1.4,3.6,3.3,3.7H1059.7z"/>
			<path id="_路径_37" class="st1" d="M1195.3,669.9c2-0.2,3.4-1.9,3.2-3.9l-0.2-13.1c0.1-2-1.4-3.6-3.3-3.7h-5
				c-2,0.2-3.4,1.9-3.2,3.9l0.2,13.1c-0.1,2,1.4,3.6,3.3,3.7H1195.3z"/>
			<g id="_编组_2">
				<g id="_编组_3">
					<path id="_路径_38" class="st1" d="M220.1,696.3c-169.3,21.2-374.2,47.4-389.9,49.4c-13.4,1.7-22.2,6-26.4,12.7
						c-2.5,3.9-0.9,7.5,0.1,12.5c-33.4,6.4-48.2,11.4-63.6,22.4c-17.7,1.6-35.2,4.9-52.3,9.7c-12,3.3-17.5,14.6-17.5,23.7
						c0,8.4,4.5,88.4,5.6,96.5c1.2,8.1,2.9,14.1,13.2,18.2c46.1,18.4,171.3,13.4,216.3-5l0.8-7.5c44.6-4.8,115.2-21.3,147.8-33.3
						l1.8-1.7l-1.5-7.5c1.3-3.6,1.9-7.5,5.4-10.3c5-4,8.2-13.2,6.4-18.3c-0.8-2.5-3.1-4.2-5.7-4.1h-9.8l1.2-14.7l12.3-14.5l69.3-0.6
						h0.9l0.7-0.6l13.5-14.5l16.2,1.3L179.6,931h51.6l-1.4-121c19-0.3,111.7,0.3,129.1,0.3c19.2,0,94.5-7.3,109-12.6
						c18.4-6.7,23.4-14,19.7-17.8c-7.3-7.3-52.9-22-64.4-25.8l3.1-8.1c9.1,0.2,53.4,1.7,66.2,1.7c14.8,0,16.7-5.1,20-14.8
						c6-0.5,26.6,0.3,36.3-1.7c8.9-1.8,10.8-7.1,11.2-9.3c0.6-4-1.3-7.9-4.8-9.9c-3-1.8-11.4-5.2-14.7-6.8l40.2-14.9
						c3.9,1.7,35.2,17.3,43.6,13.4c9-4.2,12.3-43,8.2-49.9c-1.4-2.3-4.6-2.9-8.1-2.9c-9.4,0-33.2,8.5-57.3,15l-9.3,2.6l-5,1.4
						c-4.3-1.2-8.7-2-13.2-2.2c-3.4-0.2-6.9-0.2-10.3,0c-4,0.2-7.9,0.6-11.4,1.1l-6.8,0.4l-11.3,0.6l-17.5,0.9l-11.7,0.6l-17.4,0.9
						l-11.7,0.6l-17.4,0.9l-11.7,0.6l-17.4,0.9l-2.3,0.1l-9.3,1.2L366,679l-11.7,1.5l-17.4,2.2l-11.7,1.5l-17,2.2l-11.5,1.4
						c-6.8,0.9-11.7,4-13,4.2c-0.7-0.2-2.4-3.1-4.7-3.5c-3-0.6-7.1-1.4-11.5-2.1c-5.8-1-12.1-1.8-17.4-2.2c-2.9-0.3-5.8-0.3-8.7,0
						c-1,0.1-2,0.4-2.9,0.7C233.8,686.5,224.8,690.2,220.1,696.3c-5.1,6.9,1.7,17.8,10.1,20.3"/>
					<path id="_路径_39" class="st1" d="M250.2,684v-7.6c0.1-2-1.4-3.6-3.3-3.8h-5c-2,0.1-3.5,1.8-3.3,3.8c0,0,0,0,0,0v8.2
						c1-0.2,1.9-0.6,2.9-0.7C244.3,683.6,247.2,683.6,250.2,684z"/>
					<path id="_路径_40" class="st1" d="M279.2,687.3v-11.1c0.1-2-1.4-3.6-3.3-3.8h-5c-2,0.1-3.5,1.8-3.3,3.8c0,0,0,0,0,0v10
						c4.4,0.8,8.5,1.6,11.5,2.2C279.1,688.1,279.2,687.7,279.2,687.3z"/>
					<path id="_路径_41" class="st1" d="M308.3,676c0.1-2-1.4-3.6-3.3-3.8h-5c-2,0.1-3.5,1.8-3.3,3.8c0,0,0,0,0,0v10.7
						c0,0.2,0.1,0.5,0.1,0.7l11.5-1.3L308.3,676z"/>
					<path id="_路径_42" class="st1" d="M337.3,675.8c0.1-2-1.4-3.6-3.3-3.8h-5c-2,0.1-3.5,1.8-3.3,3.8c0,0,0,0,0,0v7.7l11.7-1.3
						V675.8z"/>
					<path id="_路径_43" class="st1" d="M366.3,675.7c0.1-2-1.4-3.6-3.3-3.8h-5c-2,0.1-3.5,1.8-3.3,3.8c0,0,0,0,0,0v4.6l11.7-1.3
						V675.7z"/>
				</g>
			</g>
			<path id="_路径_44" class="st1" d="M-196.1,770.9c152-6.7,601.4-77.1,660.6-99.5"/>
			<path id="_路径_45" class="st1" d="M-19.5,726.2c-14.5,8.9-13.4,24.6,4.5,36.9c17.8,12.3,100.6,16.2,149.2,6.7"/>
			<path id="_路径_46" class="st1" d="M309.1,734l-100.6,1.1c8.9,15.6,22.4,25.7,63.7,25.7s107.3,2.2,129.7,0s21.2-6.7,21.2-6.7"
				/>
			<path id="_路径_47" class="st1" d="M381.7,719.2l-87.2,0.8c2.5,8.4,25.2,20,50.3,21.8c25.2,1.8,81.3,4.2,81.3,4.2"/>
			<path id="_路径_48" class="st1" d="M512.6,732.9c0,0-62.9-3.7-95.6-5.3c-32.7-1.7-42.8-11.7-48.6-21.7c0,0,51.1,0.8,89.7,2.5
				l54.5,5V732.9z"/>
			<line id="_路径_49" class="st1" x1="512.6" y1="713.3" x2="540.6" y2="705.2"/>
			<path id="_路径_50" class="st1" d="M467.3,708.3l79.6-23.5c0,0,18.2-2.2,33.8,5.6"/>
			<path id="_路径_51" class="st1" d="M448,677.3l96.4,6.7c-2.5-5.9,1.7-12.3,8.4-14"/>
			<path id="_路径_52" class="st1" d="M510.9,682.3c-1.7-7.5,8-13.8,12.2-13.8"/>
			<line id="_路径_53" class="st1" x1="421.2" y1="706.6" x2="421.2" y2="727.6"/>
			<line id="_路径_54" class="st1" x1="453.9" y1="730.1" x2="453.9" y2="743.5"/>
			<line id="_路径_55" class="st1" x1="346.3" y1="719.2" x2="346.3" y2="741.8"/>
			<line id="_路径_56" class="st1" x1="370.9" y1="743.5" x2="370.9" y2="761.1"/>
			<path id="_路径_57" class="st1" d="M275.3,734.2c-5.9,10-7,18.7-3.1,26.6"/>
			<line id="_路径_58" class="st1" x1="343.2" y1="763.6" x2="343.2" y2="772"/>
			<path id="_路径_59" class="st1" d="M285.4,809.5c41.9,0,78.8-11.5,86.3-15.7c7.5-4.2,8.4-9.2,6.7-27.4
				c-49.2,14.5-162,16.7-200.1,14.5c-38.1-2.2-46.9-10-52.5-23.5l106.8-2.2"/>
			<line id="_路径_60" class="st1" x1="327.3" y1="804.7" x2="327.3" y2="777"/>
			<line id="_路径_61" class="st1" x1="148.7" y1="808.9" x2="180.6" y2="782.1"/>
			<line id="_路径_62" class="st1" x1="164.9" y1="810.2" x2="229.8" y2="810"/>
			<path id="_路径_63" class="st1" d="M168.8,835.7c0,0-21.7,1.7-30.9,1.7s-20,4.2-20,19.3v15.9"/>
			<path id="_路径_64" class="st1" d="M230.6,836.3c0,0,28.6,0,37.8-0.5c9.2-0.5,20.3,3.1,21.1,18.2l0.8,17.6"/>
			<path id="_路径_65" class="st1" d="M254.4,712.5c-10.9-0.8-20.7-5.9-12.6-13.4c5-4.6,18.5-3.1,42-7.3"/>
			<path id="_路径_66" class="st1" d="M52.1,839.1c-29.9-10.9-104.5-22.6-147.3-22.6"/>
			<path id="_路径_67" class="st1" d="M64.4,824.5c-34.7-2.2-95-4.7-116.8-4.7v-62"/>
			<line id="_路径_68" class="st1" x1="80" y1="775.7" x2="80" y2="824.5"/>
			<line id="_路径_69" class="st1" x1="-3.8" y1="826.5" x2="-3.8" y2="912"/>
			<line id="_路径_70" class="st1" x1="51.1" y1="853.7" x2="54.8" y2="886.4"/>
			<path id="_路径_71" class="st1" d="M467.3,669.7v-17.3c0-4.5,0-8.9,6.7-8.9h23c5.6,0,8.4,2.8,8.4,8.4v17.9"/>
			<polyline id="_路径_72" class="st1" points="189.4,931.7 203.9,975.4 217.1,931.3 			"/>
			<line id="_路径_73" class="st1" x1="196.1" y1="949.7" x2="209.9" y2="949.7"/>
			<line id="_路径_74" class="st1" x1="192.3" y1="944.7" x2="174.3" y2="958.5"/>
			<line id="_路径_75" class="st1" x1="197.4" y1="958.5" x2="178.9" y2="964.8"/>
			<line id="_路径_76" class="st1" x1="212.4" y1="944.7" x2="234.7" y2="961.9"/>
			<line id="_路径_77" class="st1" x1="206.6" y1="958.5" x2="231.3" y2="966.9"/>
			<path id="_路径_78" class="st1" d="M1097.2,557.7c103.7,9.8,386.2,8.1,595.8-0.3"/>
			<line id="_路径_79" class="st1" x1="1223" y1="532" x2="1223" y2="563.5"/>
			<line id="_路径_80" class="st1" x1="1250.3" y1="564.1" x2="1248.7" y2="783.9"/>
			<path id="_路径_81" class="st1" d="M1270.5,564.1c14.2-11.7,26.8-21,46.1-21s234.7,4.2,234.7,4.2l15,14.2"/>
			<line id="_路径_82" class="st1" x1="1551.3" y1="547.3" x2="1824.6" y2="70.3"/>
			<polyline id="_路径_83" class="st1" points="1515.2,545.6 1786,100.5 1694.1,100.5 			"/>
			<line id="_路径_84" class="st1" x1="1708.1" y1="100.5" x2="1312.4" y2="543.5"/>
			<line id="_路径_85" class="st1" x1="1581.2" y1="561.3" x2="1581.2" y2="687"/>
			<line id="_路径_86" class="st1" x1="1737.7" y1="636.2" x2="1737.7" y2="560.7"/>
			<line id="_路径_87" class="st1" x1="1812" y1="609.9" x2="1812" y2="567.3"/>
			<path id="_路径_88" class="st1" d="M1750.3,566c0,0,110.6,3,107,4.8c-5.6,2.8-33.5,11.7-33.5,11.7l-86.1,29.6l-105,12.9
				l-121.9,46.4c-8.4,2.8-21.8,1.7-35.2-2.2s-34.7-10-41.4-15.6s-10-14.5-10-26.8c0-12.3-1.1-22.4,8.4-29.6
				c9.5-7.3,40.8-15.6,55.9-15.6c15.1,0,49.7,6.7,68.7,11.2L1750.3,566z"/>
			<line id="_路径_89" class="st1" x1="1709.2" y1="578" x2="1437.6" y2="626.1"/>
			<path id="_路径_90" class="st1" d="M1557.2,593.8c0,0-92.1,16-102.3,18.4c-14,3.3-29.6,17.4-7.8,20c38,4.5,142-2.8,185.6-7.3"
				/>
			<path id="_路径_91" class="st1" d="M1632.7,625c0,0,93.3-29.1,146.4-43.1"/>
			<path id="_路径_92" class="st1" d="M1715.9,572.4c-7.8,1.7-14.5,11.7,2.2,12.3c16.8,0.6,118.4-6,118.4-6"/>
			<path id="_路径_93" class="st1" d="M602.6,678.1c8.9-1.7,29.1-4.6,31.8-5c3.9-0.6,5.6,11.7-2.2,11.7S602.6,678.1,602.6,678.1z"
				/>
		</g>
	</g>
</g>
</svg>
